<?xml version="1.0" standalone="no"?>
<!DOCTYPE svg PUBLIC "-//W3C//DTD SVG 20010904//EN"
 "http://www.w3.org/TR/2001/REC-SVG-20010904/DTD/svg10.dtd">
<svg version="1.0" xmlns="http://www.w3.org/2000/svg"
 width="1024.000000pt" height="1024.000000pt" viewBox="0 0 1024.000000 1024.000000"
 preserveAspectRatio="xMidYMid meet">

<g transform="translate(0.000000,1024.000000) scale(0.100000,-0.100000)"
fill="#000000" stroke="none">
<path d="M5335 9247 c-80 -21 -140 -52 -190 -98 l-47 -43 -71 2 c-235 9 -470
-189 -563 -473 -26 -78 -33 -176 -22 -304 l3 -33 -131 -42 c-152 -49 -447
-192 -607 -293 -182 -116 -334 -239 -517 -423 -219 -218 -359 -398 -486 -626
l-35 -63 -41 29 c-51 37 -123 41 -173 10 l-33 -20 -53 25 c-66 30 -119 32
-175 5 -71 -35 -124 -138 -109 -216 4 -23 0 -35 -16 -50 -81 -73 -77 -201 9
-264 27 -20 29 -25 20 -56 -17 -65 36 -171 95 -190 29 -9 37 -22 37 -65 0 -21
13 -61 29 -93 30 -56 30 -56 20 -154 -17 -168 -23 -592 -9 -715 34 -313 135
-658 253 -866 25 -44 31 -69 35 -132 l4 -77 -52 10 c-145 26 -331 -59 -427
-197 l-21 -29 -73 17 c-126 29 -293 18 -404 -28 -105 -44 -201 -153 -246 -280
-32 -92 -37 -225 -11 -311 39 -127 135 -242 251 -301 35 -18 57 -35 50 -37 -8
-2 -43 -10 -79 -17 -192 -38 -336 -185 -371 -380 -24 -134 16 -259 116 -367
86 -94 202 -142 340 -142 133 0 288 65 396 167 l66 63 104 0 c57 0 139 -7 182
-15 43 -8 107 -15 142 -15 116 0 316 54 408 111 57 35 120 53 281 79 l120 20
53 -25 c96 -44 243 -58 355 -34 62 13 148 55 232 111 l58 40 92 -7 c53 -4 186
0 321 9 319 21 642 28 1238 27 524 0 1070 -14 1257 -31 58 -6 251 -23 430 -40
179 -16 381 -39 450 -49 69 -11 187 -27 264 -36 76 -9 161 -23 190 -31 198
-55 291 -57 397 -6 36 17 82 47 102 67 71 69 133 186 172 325 15 52 38 113 50
135 33 58 37 91 20 178 -8 43 -15 102 -15 131 0 117 -60 261 -148 357 -104
113 -203 162 -395 194 -50 9 -154 29 -231 46 -85 18 -190 33 -272 38 -73 4
-140 13 -147 19 -8 7 -19 31 -26 54 -7 24 -27 69 -43 100 l-31 58 56 92 c83
138 171 328 211 458 19 63 46 149 60 190 51 157 61 264 61 640 0 386 -6 438
-75 725 -79 326 -170 547 -372 900 -79 139 -236 353 -333 455 -23 25 -90 91
-147 147 l-105 102 -5 65 c-15 183 -190 359 -373 374 -50 4 -65 8 -61 19 16
40 17 143 2 206 -20 85 -46 137 -99 194 -70 76 -163 102 -244 68 l-36 -15 8
-111 c8 -126 -1 -149 -60 -149 -69 0 -110 82 -126 255 -6 61 -17 137 -25 170
-22 83 -85 201 -145 268 -65 73 -182 151 -267 177 -84 27 -228 35 -297 17z
m298 -171 c30 -15 83 -53 118 -85 99 -91 135 -170 164 -366 39 -260 86 -350
220 -415 52 -25 80 -25 149 0 90 34 146 113 146 208 0 46 16 32 36 -32 l17
-53 -41 -60 c-48 -71 -111 -128 -159 -144 -19 -6 -63 -9 -96 -7 -83 5 -144 48
-198 138 -51 83 -66 135 -88 300 -26 187 -53 253 -147 348 -101 101 -175 135
-299 136 -106 0 -157 -18 -224 -82 -25 -23 -49 -38 -57 -35 -44 17 20 114 101
153 90 44 261 42 358 -4z m-599 -112 c29 -11 17 -34 -26 -53 -78 -34 -133
-106 -205 -266 -46 -104 -136 -239 -192 -290 -32 -28 -41 -8 -41 88 0 137 67
296 167 394 59 58 156 110 229 122 27 5 50 9 51 10 1 0 8 -2 17 -5z m14 -182
c-32 -34 -54 -72 -77 -132 -18 -47 -52 -121 -74 -165 -42 -80 -81 -136 -254
-360 -105 -136 -144 -272 -122 -420 21 -147 34 -175 139 -297 l45 -52 -34 20
c-58 33 -149 123 -181 179 -66 115 -75 291 -25 441 36 109 63 145 209 289 141
139 169 180 236 349 41 104 87 174 130 196 55 29 59 7 8 -48z m490 36 c82 -39
155 -130 177 -221 6 -22 3 -25 -34 -31 -55 -9 -77 -39 -84 -121 -5 -52 -2 -77
13 -116 20 -55 21 -53 -45 -67 -34 -7 -40 -12 -40 -32 0 -23 4 -25 50 -27 59
-1 85 17 85 59 0 15 -4 28 -9 28 -10 0 -25 69 -17 77 6 6 85 -48 110 -75 32
-36 19 -145 -33 -272 -72 -179 -102 -209 -221 -217 -79 -6 -179 16 -267 58
-87 41 -192 146 -215 215 -19 55 -45 74 -99 74 -32 0 -49 -24 -30 -43 6 -6 11
-28 11 -49 0 -34 -3 -38 -24 -38 -28 0 -66 42 -66 72 0 11 43 62 100 119 55
55 100 106 100 114 0 7 17 42 38 76 21 35 55 102 76 149 111 247 99 228 168
259 35 16 74 31 88 34 45 9 121 -2 168 -25z m190 -349 c2 -12 -3 -15 -20 -12
-13 2 -40 -5 -61 -16 l-38 -19 3 21 c6 42 109 65 116 26z m-1380 -405 c-26
-59 -58 -213 -58 -280 0 -69 33 -195 72 -274 42 -84 180 -224 257 -262 l55
-26 -52 -26 c-68 -34 -172 -137 -204 -201 -14 -27 -35 -83 -47 -122 -12 -40
-26 -73 -31 -73 -12 0 -24 14 -68 82 -99 152 -218 247 -375 297 -175 56 -250
60 -407 25 -60 -14 -190 -79 -232 -118 -26 -23 -22 -90 8 -161 19 -44 27 -83
31 -145 6 -113 -10 -536 -21 -547 -10 -10 -19 2 -95 127 -44 70 -71 103 -104
125 -38 25 -46 35 -46 62 -2 99 -107 193 -216 193 -25 0 -45 2 -45 4 0 8 113
191 169 274 106 157 196 265 357 428 190 191 220 216 417 348 197 132 368 220
567 292 90 32 92 32 68 -22z m2396 -98 c77 -32 156 -134 156 -201 l0 -28 -30
32 c-17 17 -52 39 -77 49 -34 12 -49 24 -53 41 -6 27 -49 36 -165 35 -57 -1
-86 -8 -160 -39 -190 -80 -270 -91 -388 -55 -66 21 -114 60 -139 116 -18 38
-4 38 49 1 58 -43 156 -77 217 -77 55 0 110 18 246 80 58 27 116 51 130 53 59
10 182 6 214 -7z m-1815 -64 c14 -27 -17 -86 -48 -90 -59 -9 -99 26 -86 75 5
22 10 24 35 19 16 -3 32 -1 35 4 10 17 54 11 64 -8z m191 -109 c39 -32 70 -61
70 -65 0 -4 10 -8 23 -7 12 0 60 -13 107 -29 l85 -29 16 -74 c8 -41 21 -85 29
-99 40 -75 125 -142 203 -160 82 -18 90 -21 81 -30 -11 -10 -151 -49 -304 -84
-63 -15 -133 -37 -155 -49 -106 -60 -57 -149 53 -98 26 12 97 34 157 50 61 16
173 46 250 67 176 49 244 51 328 12 83 -39 164 -122 280 -287 150 -212 197
-277 340 -476 189 -262 377 -544 377 -564 0 -49 -165 -239 -327 -377 -130
-110 -261 -215 -349 -279 -144 -104 -343 -235 -387 -256 -62 -27 -132 -24
-227 11 -96 36 -147 38 -255 10 -91 -23 -108 -25 -103 -8 6 17 90 57 162 78
53 15 61 20 61 41 0 23 -3 24 -52 22 -28 -1 -91 -15 -140 -31 -126 -42 -153
-47 -153 -29 0 30 224 117 301 117 42 0 49 3 49 20 0 54 -153 35 -366 -47 -6
-2 -14 3 -17 11 -5 12 13 26 71 55 90 45 156 61 252 61 55 0 70 3 70 15 0 49
-130 69 -229 36 -35 -12 -66 -20 -69 -17 -21 22 102 76 172 76 82 0 136 -25
230 -106 173 -149 186 -154 271 -105 72 41 183 162 403 438 107 134 212 258
234 277 l40 35 -19 25 c-10 14 -21 26 -25 26 -9 0 -360 377 -536 577 -136 154
-169 182 -192 168 -18 -11 -10 -69 16 -125 21 -44 25 -65 21 -107 -3 -28 -11
-62 -18 -74 -11 -22 -13 -20 -43 42 -47 96 -61 113 -140 172 -119 90 -198 121
-329 132 -88 8 -197 -18 -276 -65 -74 -43 -161 -116 -189 -156 -12 -19 -28
-34 -34 -34 -6 0 -5 6 3 17 12 15 12 16 -3 10 -13 -4 -38 12 -90 59 -40 35
-106 81 -145 101 -74 37 -85 51 -57 74 25 20 46 68 39 89 -12 38 -52 24 -117
-40 -33 -33 -63 -60 -68 -60 -34 0 -8 99 49 188 45 68 114 125 238 192 130 71
177 106 203 152 24 42 24 46 22 262 -2 191 -1 224 15 262 10 24 19 44 21 44 1
0 34 -26 72 -57z m690 -231 c0 -11 179 -108 227 -123 21 -6 146 -15 278 -19
263 -8 322 -17 407 -62 83 -44 135 -93 168 -157 26 -53 57 -177 47 -188 -3 -2
-8 12 -11 31 -4 19 -13 37 -21 40 -8 3 -21 22 -30 43 -19 46 -116 147 -165
173 -81 42 -141 52 -345 60 -174 7 -212 11 -290 35 -117 35 -202 74 -248 114
-35 32 -48 61 -27 61 6 0 10 -4 10 -8z m1292 -97 c273 -270 492 -607 651
-1000 110 -274 163 -499 198 -840 22 -223 -6 -698 -47 -776 -13 -26 -17 -27
-42 -18 -15 6 -52 15 -82 20 -84 15 -90 18 -90 44 0 13 5 27 10 30 6 3 10 19
10 35 0 46 -29 57 -170 65 -150 8 -155 6 -134 -70 19 -71 19 -69 -35 -94 -28
-12 -64 -38 -80 -57 -27 -30 -31 -42 -31 -94 0 -46 4 -61 17 -69 22 -12 12
-23 -21 -26 -34 -4 -133 -50 -173 -81 -43 -32 -80 -107 -97 -192 l-14 -67 5
80 c5 89 27 226 48 296 9 32 29 62 68 101 45 45 59 67 76 123 24 75 28 200 10
256 -20 60 -112 207 -137 218 -31 15 -69 14 -82 -1 -13 -16 -62 -106 -96 -176
-66 -135 -53 -292 33 -424 17 -26 17 -33 1 -150 -48 -346 -52 -388 -40 -462 6
-40 14 -81 18 -92 5 -13 4 -16 -4 -9 -16 16 -94 197 -96 225 -1 14 -7 43 -13
65 -23 79 -53 215 -53 241 0 16 13 41 34 65 41 45 50 83 44 187 -5 90 -30 151
-83 210 -44 49 -116 87 -150 78 -80 -20 -130 -210 -90 -341 8 -27 13 -51 11
-53 -2 -2 -20 11 -40 28 -44 40 -110 60 -192 60 -53 0 -65 -4 -85 -25 -13 -13
-27 -25 -30 -25 -4 0 -18 18 -33 40 l-27 40 123 80 c132 85 167 110 383 274
280 212 512 434 603 576 60 93 48 141 -80 331 -81 119 -152 218 -244 340 l-73
97 68 50 c168 125 241 259 241 443 0 65 -5 103 -21 145 -30 81 -85 168 -131
209 l-39 36 33 38 c18 21 41 52 50 69 9 18 21 32 25 32 5 0 48 -38 95 -85z
m-662 -340 c0 -12 -43 -25 -63 -19 -22 7 -22 8 3 15 30 8 60 11 60 4z m-2930
-74 c0 -5 -12 -35 -26 -67 -21 -48 -25 -69 -21 -115 4 -51 3 -56 -13 -52 -25
7 -40 46 -40 106 1 61 15 91 56 118 32 21 44 24 44 10z m365 -21 c163 -56 258
-150 337 -334 22 -50 50 -107 64 -127 l25 -36 -27 -79 c-52 -152 -28 -292 81
-472 67 -112 84 -153 124 -309 34 -133 42 -235 16 -213 -26 22 -62 94 -114
227 -28 73 -51 136 -51 141 0 5 -13 41 -29 80 -16 38 -43 126 -60 194 -16 67
-37 152 -46 188 -20 83 -47 181 -81 300 -14 52 -28 101 -30 108 -2 8 -32 12
-101 13 -54 1 -101 1 -105 0 -4 0 -13 19 -19 44 -6 24 -17 50 -25 56 -22 18
-16 37 15 44 33 7 71 39 71 60 0 18 -22 23 -99 22 -58 0 -66 2 -87 27 -22 25
-25 26 -52 12 -69 -36 -71 -72 -8 -164 52 -77 57 -97 24 -86 -57 18 -108 74
-133 145 -20 54 -20 53 16 94 29 33 35 35 91 35 51 0 63 4 81 25 27 30 47 31
122 5z m-342 -162 c8 -18 28 -53 43 -76 23 -38 24 -43 7 -33 -38 20 -83 81
-83 111 0 39 12 38 33 -2z m-1188 -105 c34 -37 55 -84 55 -123 l0 -32 -40 36
c-22 20 -42 36 -45 36 -3 0 -5 -13 -5 -29 0 -17 15 -51 35 -81 41 -60 43 -70
15 -70 -63 0 -159 202 -122 256 10 16 44 33 64 34 9 0 29 -12 43 -27z m203
-15 c7 -7 12 -39 12 -73 0 -68 -10 -85 -52 -85 -28 0 -28 0 -28 69 0 38 3 76
6 85 7 19 45 21 62 4z m943 -54 c37 -40 107 -77 179 -94 36 -9 65 -22 64 -28
-1 -7 -2 -40 -2 -75 l-2 -62 -112 0 c-62 0 -128 -2 -147 -5 l-33 -5 1 105 c2
116 9 190 20 190 4 0 18 -12 32 -26z m2089 -90 c36 -17 80 -46 99 -65 39 -40
47 -85 45 -259 -2 -119 -28 -216 -114 -415 -26 -61 -52 -127 -59 -148 l-13
-37 -69 0 c-48 0 -69 4 -70 13 -1 12 -2 19 -14 85 -6 35 -25 41 -49 17 -14
-15 -36 -75 -36 -101 0 -6 -18 -14 -41 -17 -36 -5 -47 -1 -86 29 -58 45 -77
49 -209 49 -111 0 -111 0 -166 -36 -44 -30 -66 -37 -114 -40 l-59 -4 -31 95
c-35 107 -56 151 -126 263 -77 124 -91 166 -92 282 -1 94 1 105 32 167 41 84
100 138 151 138 45 0 145 -47 195 -90 45 -40 73 -87 122 -203 30 -73 40 -88
57 -85 22 3 24 7 61 98 57 139 151 233 281 279 91 32 217 26 305 -15z m-2732
-24 c32 -20 52 -54 52 -90 0 -24 -100 -82 -117 -68 -10 8 -33 90 -33 117 0 14
41 61 53 61 7 0 27 -9 45 -20z m1140 -55 c7 -27 29 -99 48 -160 31 -98 77
-314 69 -323 -2 -2 -20 18 -39 45 -20 28 -62 68 -95 91 -71 51 -74 60 -75 260
l-1 143 40 -3 c38 -3 40 -4 53 -53z m-1766 -14 c14 -22 23 -42 20 -45 -3 -3
-24 -6 -47 -6 -34 0 -44 4 -53 24 -8 18 -7 28 4 45 23 32 47 26 76 -18z m428
-199 c16 -94 36 -155 98 -312 13 -34 -30 15 -62 70 -29 50 -34 68 -38 146 -4
69 -12 106 -36 167 -39 94 -39 99 -7 66 21 -20 29 -46 45 -137z m-126 73 c50
-61 86 -124 86 -154 0 -25 -1 -24 -36 10 -36 34 -105 130 -117 161 -3 9 -3 19
0 22 14 14 31 4 67 -39z m468 -22 c31 -33 68 -93 68 -110 0 -23 -54 6 -79 42
-13 19 -30 35 -38 35 -20 0 -60 -28 -68 -48 -5 -13 -2 -13 15 3 17 15 20 16
20 3 0 -9 7 -18 15 -22 8 -3 15 -15 15 -26 0 -13 4 -19 11 -14 8 5 9 2 3 -8
-14 -25 -96 -89 -108 -85 -5 2 -21 36 -35 75 l-25 71 29 23 c37 31 127 86 141
87 5 1 22 -11 36 -26z m-610 -44 c13 -17 38 -47 56 -66 35 -40 40 -53 17 -53
-9 0 -21 12 -27 28 -7 15 -13 29 -15 31 -2 2 -12 -6 -23 -19 -14 -16 -17 -27
-10 -35 17 -20 -29 -26 -63 -8 -41 21 -77 62 -77 87 0 42 27 66 75 66 37 0 47
-5 67 -31z m1311 -38 c20 -8 27 -18 27 -36 l0 -25 -124 0 -124 0 -5 27 c-3 16
-1 31 4 34 17 10 195 10 222 0z m-570 -122 c4 -16 3 -18 -8 -9 -10 8 -25 5
-59 -12 -25 -12 -46 -24 -46 -27 0 -4 14 -6 31 -7 38 -1 63 -25 55 -51 -7 -23
-154 -116 -170 -109 -6 2 -24 30 -41 62 l-29 57 23 16 c13 9 67 39 119 68 99
53 114 55 125 12z m537 -48 l65 -17 3 -64 c2 -36 1 -88 -3 -117 l-6 -51 -67
-12 c-37 -6 -81 -16 -97 -22 -20 -7 -49 -7 -85 -2 -46 8 -58 14 -77 43 -13 19
-23 47 -23 63 0 57 64 153 125 186 28 16 89 13 165 -7z m-1090 -67 c38 -51 40
-57 25 -68 -17 -12 -17 -14 0 -39 l17 -27 -53 25 c-30 14 -69 25 -87 25 -80 0
-98 55 -37 109 55 48 84 43 135 -25z m1379 -49 c35 -40 71 -106 71 -130 0 -20
-45 -37 -89 -33 l-36 3 1 70 c3 116 4 125 13 125 5 0 23 -16 40 -35z m-739 16
c0 -5 -13 -14 -30 -21 -16 -7 -30 -16 -30 -21 0 -17 -62 -78 -74 -73 -8 3 -16
-2 -20 -11 -3 -9 -10 -14 -14 -11 -5 3 -14 -6 -20 -19 -13 -29 -43 -33 -66 -9
-31 30 -23 38 123 116 104 57 131 67 131 49z m3260 -124 c-17 -23 -64 -87
-103 -141 -40 -54 -99 -133 -133 -175 -84 -105 -268 -295 -282 -290 -6 2 -49
37 -96 77 -85 71 -86 73 -86 118 0 80 27 172 92 312 21 46 38 90 38 97 0 28
26 37 72 24 113 -31 257 -4 379 71 l64 39 43 -45 43 -44 -31 -43z m-3991 -96
c10 -10 32 -41 47 -67 l29 -49 5 -535 c3 -294 2 -555 -1 -580 -5 -43 -6 -44
-17 -20 -24 50 -81 268 -102 385 -33 191 -46 446 -32 633 13 158 29 252 44
252 4 0 17 -9 27 -19z m838 -71 c39 -34 48 -36 102 -14 36 14 40 14 72 -5 51
-31 90 -27 139 14 24 20 48 34 54 32 6 -2 14 -37 17 -78 7 -95 2 -1449 -6
-1511 -7 -46 -7 -46 -49 -50 -56 -4 -76 0 -70 16 6 15 -43 29 -52 15 -3 -5
-22 -9 -42 -9 -44 0 -82 -23 -82 -50 0 -10 -5 -22 -11 -25 -6 -4 -8 -13 -5
-21 3 -8 -1 -17 -9 -20 -8 -4 -13 -9 -11 -13 3 -4 -5 -20 -17 -35 -21 -26 -32
-29 -157 -46 -74 -11 -200 -29 -280 -41 -80 -11 -158 -22 -175 -23 l-30 -1 -3
934 c-1 601 1 938 8 945 6 6 28 1 62 -17 29 -14 80 -28 113 -32 54 -6 64 -4
98 19 47 32 55 32 97 1 46 -34 73 -32 127 10 25 19 53 35 61 35 8 0 30 -13 49
-30z m564 -25 c22 -19 45 -35 53 -35 8 0 33 16 56 35 23 19 52 35 65 35 48 0
49 -6 53 -428 5 -424 -1 -515 -37 -553 -11 -12 -31 -49 -45 -84 -36 -91 -103
-229 -137 -284 -27 -43 -31 -60 -37 -157 -4 -63 -12 -109 -18 -111 -7 -2 -13
56 -17 184 -9 239 -9 1360 -1 1402 4 17 11 31 17 31 5 0 27 -16 48 -35z m1220
-84 l39 -39 0 -94 c0 -89 -2 -96 -29 -128 -28 -34 -31 -35 -112 -38 -46 -2
-96 1 -110 6 -40 16 -61 72 -63 166 -2 136 26 166 158 166 78 0 79 0 117 -39z
m-855 -37 c-3 -8 -1 -14 3 -14 23 0 72 -190 72 -279 0 -79 -9 -114 -57 -216
-27 -58 -28 -65 -26 -196 1 -75 -2 -147 -7 -160 -7 -16 -10 105 -10 367 -1
410 5 559 21 529 5 -9 7 -23 4 -31z m505 -94 c-1 -41 -3 -76 -4 -77 -1 -1 -27
-3 -57 -4 l-55 -3 -3 76 -3 77 48 4 c81 6 77 10 74 -73z m-45 -216 c20 -5 20
-6 2 -82 -50 -216 -90 -523 -103 -782 -8 -151 -24 -369 -30 -397 -4 -15 -13
-23 -26 -23 -11 0 -29 -5 -40 -10 -14 -8 -19 -7 -19 2 1 180 -8 477 -14 487
-16 25 -81 -251 -95 -407 -5 -45 -10 -84 -12 -87 -4 -3 -221 -24 -225 -21 -6
3 50 255 80 366 39 142 85 257 236 585 79 172 129 289 153 358 6 17 49 23 93
11z m161 -54 c15 0 15 -29 9 -282 -4 -156 -11 -428 -15 -605 -3 -177 -9 -324
-12 -328 -4 -3 -39 -9 -78 -12 l-71 -6 0 79 c0 83 27 478 35 504 2 8 9 67 15
130 11 122 59 496 66 519 2 7 11 10 20 7 9 -3 23 -6 31 -6z m221 -25 c8 -7 27
-630 27 -890 l0 -300 -69 -3 -69 -3 7 598 c4 328 9 600 12 604 3 6 84 1 92 -6z
m1947 -44 c46 -91 43 -217 -6 -270 -28 -30 -46 -26 -67 17 -27 53 -34 100 -22
162 11 59 46 140 61 140 5 0 20 -22 34 -49z m-375 -266 c21 -42 27 -135 10
-135 -6 0 -15 -12 -21 -26 -9 -25 -10 -26 -28 -10 -11 10 -29 42 -41 72 -24
58 -24 130 1 175 11 22 11 22 36 -7 13 -16 33 -47 43 -69z m-1405 71 c19 -8
35 -17 35 -20 0 -3 11 -74 24 -158 14 -84 34 -245 46 -358 22 -211 43 -363 54
-391 6 -13 -1 -17 -32 -22 -22 -2 -60 -3 -85 0 l-45 5 -6 102 c-4 55 -11 202
-16 326 -5 124 -13 294 -16 378 -4 83 -4 152 0 152 4 0 22 -7 41 -14z m2355
-33 c2 -2 -2 -16 -11 -31 -11 -21 -24 -28 -52 -30 -43 -4 -56 15 -39 53 10 21
16 23 54 18 24 -3 45 -8 48 -10z m-2070 -133 c10 -36 29 -103 43 -150 26 -89
52 -205 63 -278 6 -38 5 -42 -11 -36 -15 6 -17 2 -12 -27 23 -155 37 -273 35
-281 -2 -6 -28 -11 -58 -12 l-55 -1 -17 80 c-9 44 -22 121 -28 170 -6 50 -25
182 -41 295 -16 113 -29 229 -29 258 l0 53 46 -3 47 -3 17 -65z m129 40 c4 0
13 -19 20 -42 7 -24 26 -70 43 -103 34 -66 133 -357 172 -505 13 -52 29 -109
34 -127 12 -37 8 -43 -28 -43 -26 0 -29 6 -54 88 -15 48 -45 143 -66 212 -22
69 -44 150 -51 180 -6 30 -26 111 -44 180 -28 105 -52 215 -38 173 3 -7 8 -13
12 -13z m1983 -90 c72 13 131 2 141 -25 6 -14 -93 -41 -188 -51 l-50 -5 29 26
c15 14 27 27 25 29 -5 3 -167 -14 -187 -20 -23 -7 -2 -24 29 -24 34 0 36 -8 8
-39 -34 -37 -54 -24 -57 37 -4 76 1 80 100 69 57 -6 104 -5 150 3z m-1290 -66
c25 -8 56 -27 69 -41 l24 -26 -25 7 c-14 4 -41 9 -60 12 -28 4 -31 3 -14 -5
23 -10 64 -62 64 -80 0 -17 -16 -13 -71 14 -33 17 -53 35 -59 53 -6 15 -15 35
-20 44 -6 10 -10 22 -10 28 0 15 50 12 102 -6z m242 -101 c15 -31 39 -173 29
-173 -2 0 -16 19 -33 42 -26 35 -30 50 -30 105 0 34 4 63 8 63 5 0 16 -17 26
-37z m776 -108 c35 -18 71 -62 64 -79 -3 -7 -22 -18 -43 -25 -38 -11 -68 -35
-106 -83 -11 -13 -33 -33 -48 -43 -18 -12 -24 -21 -17 -25 8 -5 6 -9 -5 -14
-58 -22 -99 13 -116 97 -11 55 -11 59 17 104 41 66 101 97 172 89 30 -4 66
-13 82 -21z m351 -112 c-22 -43 -62 -108 -88 -145 -27 -37 -56 -81 -65 -97
-16 -29 -21 -31 -73 -31 l-55 0 41 53 c62 77 99 161 99 225 0 47 2 52 23 53
12 0 51 8 87 17 36 9 66 14 68 10 2 -4 -15 -42 -37 -85z m-1314 69 c90 -4 94
-5 119 -35 70 -85 214 -344 214 -385 0 -12 -15 -13 -92 -7 -51 4 -100 11 -109
16 -21 11 -113 156 -211 331 -53 96 -56 104 -30 92 9 -4 59 -9 109 -12z m570
-244 c-2 -13 -4 -3 -4 22 0 25 2 35 4 23 2 -13 2 -33 0 -45z m-2972 -97 c-3
-6 -11 -11 -17 -11 -6 0 -6 6 2 15 14 17 26 13 15 -4z m3276 -26 l106 0 -66
-62 c-36 -34 -74 -62 -85 -63 -31 0 -210 32 -219 39 -4 4 11 29 34 55 42 47
43 48 83 40 23 -5 89 -9 147 -9z m-3453 -109 c123 -62 164 -179 107 -300 -24
-50 -67 -76 -128 -76 -40 0 -54 5 -78 29 -18 18 -29 40 -29 57 0 38 37 88 82
114 48 27 49 53 6 80 -92 56 -216 -7 -284 -145 -31 -64 -36 -83 -37 -147 -1
-122 48 -189 161 -223 117 -35 132 -46 132 -98 0 -34 -16 -44 -91 -60 -111
-24 -190 -79 -223 -158 -22 -52 -31 -176 -17 -240 33 -151 174 -226 294 -156
116 68 144 182 63 253 -20 17 -36 34 -36 37 0 11 59 25 82 20 40 -10 86 -51
98 -89 30 -89 -17 -219 -100 -281 -25 -18 -74 -42 -109 -53 -215 -68 -429 51
-477 267 -38 171 31 339 176 429 33 20 60 40 60 44 0 4 -12 12 -27 19 -59 27
-120 82 -149 133 -25 46 -29 64 -29 129 0 66 4 84 37 150 41 82 117 174 181
218 108 73 246 92 335 47z m2499 0 l28 -25 -50 -51 c-66 -68 -161 -115 -211
-106 -33 7 -36 10 -31 34 15 73 37 103 92 127 29 13 56 29 60 34 12 21 82 12
112 -13z m-1441 -42 c19 -9 34 -22 34 -29 0 -18 -86 -94 -123 -109 -37 -15
-127 -29 -127 -19 0 3 19 27 43 53 23 26 56 63 73 83 35 41 50 44 100 21z
m2685 -33 c34 -34 39 -45 39 -84 0 -87 -76 -139 -143 -98 -73 45 -89 132 -35
188 46 47 88 46 139 -6z m-5045 -15 c31 -31 34 -39 34 -92 0 -79 -15 -128 -52
-170 -41 -47 -91 -71 -174 -84 -38 -6 -70 -13 -72 -15 -8 -8 -21 -95 -37 -242
-17 -157 -53 -385 -86 -546 -11 -54 -19 -105 -17 -113 3 -16 145 -79 257 -114
156 -49 346 -34 485 39 39 21 77 36 84 34 24 -9 11 -42 -32 -80 -170 -150
-405 -170 -706 -63 -168 60 -148 63 -200 -31 -71 -129 -174 -209 -305 -236
-66 -13 -80 -13 -137 2 -91 23 -157 63 -195 118 -107 158 -30 353 169 429 93
35 239 22 371 -34 26 -12 49 -19 52 -17 6 7 52 338 80 579 13 118 27 235 31
260 l6 45 -97 29 c-226 66 -387 -2 -402 -171 -11 -117 53 -203 149 -203 70 0
95 30 72 87 -10 27 -10 34 2 44 11 9 23 8 55 -6 52 -24 69 -49 69 -103 0 -58
-27 -94 -92 -122 -44 -19 -64 -22 -119 -17 -117 10 -185 54 -237 152 -23 43
-27 62 -27 135 1 70 5 95 27 141 32 69 88 128 154 159 73 36 213 40 332 10
127 -31 149 -27 190 35 85 129 177 194 276 195 53 0 61 -3 92 -34z m3124 -146
c86 -44 110 -113 110 -314 0 -97 4 -156 11 -163 7 -7 8 -17 1 -29 -11 -22 -22
-306 -13 -349 3 -16 16 -34 27 -40 34 -17 54 -36 54 -52 0 -11 -25 -13 -137
-11 l-138 3 -1 215 c-2 589 -2 570 -19 596 -23 35 -47 30 -97 -24 -42 -45 -45
-53 -51 -117 -4 -39 -7 -188 -8 -332 -2 -253 -1 -262 20 -288 39 -51 32 -55
-96 -55 -65 0 -128 -3 -140 -6 -33 -9 -30 22 5 59 l27 28 3 380 c2 379 -1 419
-32 419 -18 0 -49 36 -44 52 3 9 30 13 94 13 49 1 106 5 128 9 l39 9 -5 -62
c-2 -33 -2 -61 0 -61 2 0 30 27 62 60 79 79 131 95 200 60z m-750 -26 c39 -11
65 -29 101 -65 60 -62 88 -135 96 -249 6 -80 8 -87 39 -116 34 -32 34 -44 3
-44 -27 0 -37 -27 -48 -136 -8 -80 -17 -112 -46 -171 -76 -155 -223 -215 -355
-145 -99 51 -150 158 -150 313 0 78 -2 90 -20 99 -25 13 -25 24 -1 58 12 18
21 53 25 102 17 198 89 325 203 356 65 17 90 17 153 -2z m1359 -3 c46 -24 105
-88 127 -138 9 -21 21 -92 27 -158 l12 -120 33 -14 c17 -8 32 -18 32 -22 0 -3
-16 -17 -35 -30 -39 -26 -42 -33 -49 -134 -14 -213 -154 -358 -315 -326 -153
31 -225 139 -235 350 -4 73 -9 100 -24 121 -17 22 -18 29 -6 44 13 18 22 54
45 186 29 171 125 260 276 260 53 0 84 -5 112 -19z m454 -46 c-2 -25 1 -45 5
-45 4 0 23 16 42 35 45 46 90 61 141 46 22 -7 39 -18 39 -26 0 -19 -2 -19 48
5 50 24 91 25 163 4 67 -20 97 -38 109 -68 16 -42 13 -460 -4 -626 -21 -205
-21 -203 15 -244 17 -20 28 -39 25 -44 -2 -4 -31 -5 -63 -1 -32 4 -88 8 -125
8 -37 1 -70 6 -74 12 -3 6 4 25 17 42 23 31 24 38 26 242 1 116 7 253 13 305
5 52 10 125 10 162 0 64 -1 68 -25 74 -33 8 -51 -8 -69 -64 -19 -57 -56 -332
-57 -422 0 -36 -8 -121 -17 -190 l-17 -124 -47 -3 c-38 -3 -49 1 -57 16 -16
29 -31 223 -39 494 -6 202 -4 253 7 275 9 18 -2 10 -37 -25 -28 -29 -53 -61
-56 -70 -3 -10 -7 -81 -10 -158 -3 -77 -8 -209 -12 -292 l-6 -153 26 -31 c15
-17 25 -36 24 -41 -5 -14 -250 -10 -263 3 -7 7 3 22 30 44 l40 34 2 218 c1
120 5 284 9 364 9 184 4 214 -42 241 -19 11 -34 28 -34 38 0 16 11 17 133 14
l132 -4 -2 -45z m-2343 3 c89 -45 130 -136 115 -251 -13 -88 -83 -139 -148
-106 -36 19 -57 52 -57 93 0 33 7 45 40 77 47 45 49 60 14 88 -36 28 -76 26
-112 -4 -65 -55 -83 -164 -72 -441 7 -193 15 -223 66 -263 37 -29 73 -26 127
10 53 35 79 67 97 122 13 42 37 58 51 36 15 -21 3 -102 -21 -149 -93 -183
-301 -219 -429 -74 -42 48 -63 108 -82 234 -6 41 -19 92 -30 112 -18 34 -18
40 -4 61 8 13 22 63 30 113 28 163 106 289 210 342 56 30 147 29 205 0z m3135
-27 c82 -5 99 -9 96 -21 -16 -69 -24 -247 -20 -465 1 -22 -4 -66 -9 -99 -6
-32 -14 -114 -18 -182 l-7 -123 32 -28 c17 -15 31 -36 31 -47 0 -16 -5 -18
-37 -12 -21 3 -83 11 -138 17 -55 7 -102 13 -103 15 -9 7 11 44 24 44 8 0 14
1 15 3 0 1 4 88 9 192 7 175 6 193 -11 227 -18 37 -18 37 4 53 21 15 22 23 26
181 3 147 1 167 -15 185 -9 10 -23 19 -29 19 -22 0 -59 36 -50 49 5 9 20 11
54 5 25 -4 91 -10 146 -13z m575 -72 c105 -46 155 -146 131 -261 -23 -107
-100 -141 -167 -74 -27 27 -34 42 -34 74 0 36 5 45 47 81 l47 40 -23 25 c-31
33 -72 41 -110 21 -40 -20 -56 -46 -76 -120 -14 -54 -20 -111 -41 -405 -8
-101 5 -156 43 -195 24 -23 34 -26 70 -22 51 5 84 31 140 105 54 72 68 73 68
6 -1 -42 -8 -63 -37 -110 -48 -78 -90 -111 -158 -125 -48 -9 -62 -8 -111 10
-80 30 -140 86 -174 163 -27 60 -28 70 -27 198 2 154 0 166 -31 174 -22 6 -22
6 6 28 22 19 29 37 41 103 43 252 203 367 396 284z m-5080 -75 c0 -9 -6 -42
-14 -73 -8 -31 -20 -99 -26 -151 -10 -84 -29 -219 -59 -418 -24 -153 42 -110
106 71 15 42 32 76 38 74 15 -5 35 -49 35 -78 0 -40 -74 -181 -126 -239 -53
-58 -90 -80 -133 -80 -24 0 -34 8 -55 45 -15 25 -28 45 -30 45 -2 0 -15 -18
-30 -41 -54 -80 -194 -116 -266 -66 -72 48 -106 172 -96 347 10 188 65 347
153 441 72 77 111 94 212 92 52 -2 90 2 99 9 14 12 118 35 165 37 18 1 27 -4
27 -15z m5649 -23 c48 -25 112 -96 142 -159 19 -39 23 -68 27 -177 4 -124 5
-131 31 -158 l26 -29 -36 -31 c-31 -27 -39 -43 -52 -102 -33 -151 -76 -228
-155 -277 -28 -17 -52 -22 -107 -23 -122 0 -217 64 -274 185 -25 53 -26 61
-23 206 2 126 0 153 -13 164 -21 18 -19 35 9 53 14 10 28 33 35 61 45 178 121
278 234 307 45 11 110 3 156 -20z"/>
<path d="M5240 8604 c-45 -19 -80 -53 -80 -76 0 -22 14 -23 91 -1 56 15 64 15
134 -1 78 -18 95 -16 95 13 0 60 -155 102 -240 65z"/>
<path d="M5239 8475 c-62 -32 -74 -48 -54 -69 19 -19 48 -21 77 -5 17 9 25 5
53 -26 38 -41 48 -40 103 17 39 42 35 61 -19 88 -50 26 -104 24 -160 -5z"/>
<path d="M5364 8115 c-12 -30 28 -55 113 -72 90 -18 144 -12 174 18 40 40 27
46 -103 53 -68 4 -135 9 -151 12 -19 4 -29 1 -33 -11z"/>
<path d="M5563 8003 c9 -2 23 -2 30 0 6 3 -1 5 -18 5 -16 0 -22 -2 -12 -5z"/>
<path d="M3864 7655 c-10 -15 -14 -34 -10 -49 8 -31 307 -334 365 -371 42 -26
45 -27 58 -9 18 24 16 62 -5 102 -10 18 -89 104 -176 192 -131 133 -163 160
-187 160 -19 0 -34 -8 -45 -25z"/>
<path d="M3760 7397 c0 -22 43 -55 74 -59 43 -5 42 17 -1 46 -41 28 -73 34
-73 13z"/>
<path d="M7209 6718 c-68 -35 -128 -72 -134 -83 -9 -14 -10 -30 -3 -54 9 -32
11 -33 49 -28 22 3 94 29 159 58 109 47 120 54 120 78 0 33 -35 91 -55 91 -8
0 -69 -28 -136 -62z"/>
<path d="M7280 6490 c-137 -31 -176 -45 -185 -68 -7 -18 4 -80 15 -87 4 -3 32
0 61 6 30 5 107 19 172 30 66 10 127 24 138 29 23 13 25 50 4 90 -20 38 -39
38 -205 0z"/>
<path d="M7340 6223 c-94 -18 -105 -27 -96 -87 l7 -46 135 0 c132 0 136 1 161
26 21 21 24 32 20 61 -3 19 -11 41 -18 49 -15 18 -107 17 -209 -3z"/>
<path d="M7446 5808 c-3 -13 -6 -33 -6 -45 0 -19 -6 -23 -28 -23 -35 0 -45 -9
-32 -26 8 -9 -1 -22 -35 -50 -26 -21 -56 -55 -67 -77 -26 -52 -27 -141 -2
-188 13 -24 20 -65 24 -134 l5 -100 175 3 c97 2 179 7 185 13 5 5 12 49 16 97
4 60 13 100 28 129 44 87 18 196 -61 253 -24 17 -47 38 -51 46 -5 9 -16 12
-34 8 -25 -7 -26 -6 -19 30 10 52 -13 86 -58 86 -26 0 -35 -5 -40 -22z m140
-252 c44 -44 47 -95 8 -131 -15 -14 -34 -25 -43 -25 -14 0 -14 2 -1 10 11 7
12 12 3 21 -9 9 -17 6 -35 -11 -12 -13 -18 -20 -11 -16 6 3 14 2 18 -4 3 -5
-4 -11 -17 -12 -13 0 -30 -2 -38 -3 -52 -5 -89 32 -105 103 -12 57 47 102 134
102 47 0 57 -4 87 -34z m34 -280 c0 -7 -10 -16 -22 -20 -37 -10 -226 -7 -233
4 -8 13 25 19 120 23 44 2 92 4 108 5 17 1 27 -3 27 -12z"/>
<path d="M7490 5455 c0 -8 7 -15 15 -15 8 0 15 7 15 15 0 8 -7 15 -15 15 -8 0
-15 -7 -15 -15z"/>
<path d="M5485 6032 c-72 -32 -88 -36 -165 -36 -64 0 -98 6 -139 23 -84 34
-102 17 -55 -56 15 -22 43 -48 63 -58 53 -25 175 -31 243 -11 106 30 189 106
173 156 -9 27 -26 24 -120 -18z"/>
<path d="M2318 6273 c7 -3 16 -2 19 1 4 3 -2 6 -13 5 -11 0 -14 -3 -6 -6z"/>
<path d="M6002 5703 c-21 -8 -40 -56 -32 -78 19 -51 98 -67 130 -28 43 54 -30
134 -98 106z"/>
<path d="M3171 5488 c-52 -19 -67 -84 -31 -131 32 -40 57 -43 91 -11 64 61 17
171 -60 142z"/>
<path d="M3347 5473 c-14 -13 -6 -70 11 -86 22 -20 63 -22 80 -5 18 18 14 56
-8 78 -19 19 -69 27 -83 13z"/>
<path d="M3005 5182 c-23 -6 -31 -13 -33 -35 -5 -42 26 -48 236 -45 l186 3 8
30 c4 16 4 32 0 36 -10 9 -361 19 -397 11z"/>
<path d="M2990 5037 c0 -37 -5 -49 -26 -66 -14 -11 -30 -21 -37 -24 -9 -3 -9
-10 2 -30 11 -21 12 -42 2 -119 -6 -53 -9 -143 -5 -208 6 -123 7 -155 4 -196
-6 -67 93 -107 265 -108 129 -1 204 16 244 53 l28 27 8 184 c4 129 3 205 -5
250 -12 66 -14 84 -8 130 3 22 -1 26 -37 30 l-40 5 3 59 2 58 -82 -6 c-113 -9
-235 -10 -280 -1 l-38 7 0 -45z m226 -99 c100 2 123 0 134 -13 25 -30 -3 -36
-161 -33 l-154 3 -3 29 c-4 28 -3 29 30 20 18 -5 87 -8 154 -6z m16 -143 l156
1 4 -36 c5 -52 -1 -77 -20 -86 -9 -4 -95 -9 -191 -12 -138 -3 -175 -1 -182 9
-8 13 -2 114 8 131 2 4 18 4 36 0 18 -4 102 -7 189 -7z m31 -199 l137 2 0 -28
c0 -20 -6 -29 -22 -34 -88 -23 -361 -12 -379 15 -5 8 -9 24 -9 37 0 23 1 23
68 15 37 -4 129 -7 205 -7z m5 -140 c177 0 202 -9 115 -43 -39 -15 -77 -18
-198 -18 -141 0 -152 1 -182 23 -18 13 -33 30 -33 38 0 13 10 14 68 7 37 -4
140 -8 230 -7z"/>
<path d="M4911 5578 c-14 -7 -28 -26 -32 -42 -9 -33 -2 -107 13 -148 10 -27
13 -28 79 -28 57 0 72 4 96 24 25 21 28 31 28 84 0 89 -23 116 -101 120 -33 1
-70 -3 -83 -10z m104 -93 c0 -27 -3 -30 -34 -30 -41 0 -62 25 -41 50 8 10 25
15 44 13 27 -3 31 -7 31 -33z"/>
<path d="M6976 5015 c-3 -9 -6 -26 -5 -38 1 -14 4 -9 9 13 9 37 7 52 -4 25z"/>
<path d="M2383 3753 c-47 -51 -84 -163 -53 -163 19 0 76 27 93 44 25 25 50
116 36 133 -18 21 -48 15 -76 -14z"/>
<path d="M1600 2571 c-119 -39 -172 -149 -121 -249 23 -46 46 -67 94 -87 114
-48 247 28 320 183 21 46 36 90 33 97 -14 37 -257 79 -326 56z"/>
<path d="M4794 3583 c-38 -27 -45 -108 -48 -558 -1 -106 17 -165 55 -185 25
-14 65 6 89 44 44 72 50 248 9 300 -24 31 -24 38 2 62 20 18 21 26 17 140 -6
151 -24 198 -78 202 -19 1 -40 -1 -46 -5z"/>
<path d="M6112 3577 c-39 -41 -44 -82 -48 -371 -4 -268 -3 -281 17 -323 27
-55 66 -62 106 -18 44 50 72 294 38 339 -11 14 -11 24 -3 45 7 14 12 87 12
163 1 131 0 137 -23 162 -31 33 -70 34 -99 3z"/>
<path d="M2660 3304 c-72 -61 -103 -184 -117 -473 -5 -101 3 -135 42 -171 32
-30 55 -22 92 33 41 61 52 100 59 212 3 50 14 159 26 243 23 170 20 182 -37
182 -21 0 -45 -10 -65 -26z"/>
<path d="M8526 3319 c-46 -54 -87 -248 -65 -302 10 -24 9 -34 -4 -56 -21 -36
-40 -231 -27 -285 12 -52 41 -90 72 -94 34 -4 73 43 93 111 19 68 37 195 30
217 -3 10 -1 37 4 61 17 76 32 252 25 298 -12 83 -79 109 -128 50z"/>
<path d="M2028 4319 c-18 -17 -49 -43 -68 -57 -44 -34 -50 -42 -50 -69 0 -29
10 -29 44 -2 l28 22 30 -37 c38 -46 66 -46 116 -1 28 25 44 32 60 28 27 -7 30
16 5 45 -26 30 -113 102 -123 102 -5 0 -24 -14 -42 -31z"/>
<path d="M8318 4281 c-12 -16 -34 -43 -48 -60 -30 -37 -43 -40 -34 -7 8 32
-18 46 -85 46 -43 0 -51 -3 -51 -19 0 -10 9 -21 20 -24 15 -4 20 -14 20 -40 0
-22 -6 -37 -15 -41 -8 -3 -15 -17 -15 -31 0 -21 5 -25 28 -25 46 0 72 11 72
31 0 28 40 19 80 -18 45 -42 69 -42 99 2 28 42 37 43 45 10 8 -31 45 -41 83
-23 22 10 29 21 31 52 2 21 0 36 -5 33 -4 -3 -8 9 -8 26 0 29 -3 32 -33 35
-18 2 -39 -2 -47 -8 -10 -9 -17 -5 -32 16 -26 39 -61 74 -72 74 -5 0 -20 -13
-33 -29z"/>
<path d="M4084 2200 c-35 -14 -84 -78 -84 -111 0 -53 47 -118 97 -133 28 -9
81 14 113 49 34 37 35 108 2 150 -40 50 -80 65 -128 45z m78 -96 c23 -50 -37
-107 -78 -74 -16 14 -18 53 -4 81 16 30 67 26 82 -7z"/>
<path d="M4290 2083 l0 -123 28 0 c24 0 30 5 38 38 l10 37 35 -37 c39 -41 79
-51 79 -19 0 10 -7 24 -15 31 -20 17 -19 36 5 76 l21 33 -20 40 -21 39 -80 4
-80 3 0 -122z m133 51 c11 -11 -13 -44 -31 -44 -21 0 -42 19 -42 37 0 13 61
19 73 7z"/>
<path d="M4540 2177 c0 -19 -3 -75 -7 -126 l-6 -93 28 4 c22 2 31 11 40 38
l12 35 46 -47 c63 -65 103 -50 60 22 -16 27 -16 31 1 68 22 48 15 95 -17 117
-14 10 -45 15 -89 15 l-68 0 0 -33z m114 -33 c25 -10 19 -43 -8 -50 -32 -8
-46 2 -46 32 0 25 20 31 54 18z"/>
<path d="M4814 2166 c-38 -37 -44 -49 -44 -85 0 -35 6 -47 40 -81 38 -38 57
-45 105 -40 37 4 82 47 92 89 14 54 6 86 -32 127 -27 28 -39 34 -75 34 -37 0
-48 -6 -86 -44z m122 -51 c22 -33 11 -73 -21 -81 -34 -8 -53 1 -67 31 -28 62
50 107 88 50z"/>
<path d="M5293 2198 c-36 -57 -96 -207 -89 -225 3 -7 19 -13 35 -13 22 0 30 5
35 25 5 21 12 25 41 25 29 0 37 -5 45 -25 7 -19 17 -25 40 -25 17 0 30 5 30
13 0 14 -63 185 -79 216 -13 23 -45 28 -58 9z m37 -120 c0 -10 -7 -18 -15 -18
-16 0 -19 17 -9 45 5 13 8 14 15 3 5 -7 9 -21 9 -30z"/>
<path d="M5690 2193 c-28 -14 -36 -25 -38 -51 -4 -40 9 -57 60 -83 37 -19 56
-58 22 -45 -9 3 -33 9 -55 12 -36 6 -39 5 -39 -17 0 -13 4 -29 8 -36 11 -18
57 -32 83 -26 27 6 99 71 99 89 0 14 -75 84 -90 84 -6 0 -10 5 -10 10 0 6 16
10 35 10 37 0 45 14 23 43 -20 25 -59 29 -98 10z"/>
<path d="M6265 2081 l0 -131 73 0 c67 0 75 2 98 27 22 23 25 34 19 63 -4 19
-8 51 -9 71 -3 62 -30 83 -121 94 l-60 6 0 -130z m135 44 c0 -11 -11 -15 -40
-15 -62 0 -50 27 13 29 18 1 27 -4 27 -14z m-16 -102 c-20 -15 -60 -17 -68 -4
-4 5 13 16 36 24 46 15 65 4 32 -20z"/>
<path d="M6582 2194 c-50 -26 -92 -79 -92 -119 0 -43 40 -92 97 -117 43 -19
44 -19 78 2 88 54 105 149 38 212 -37 34 -80 42 -121 22z m63 -68 c18 -13 24
-64 10 -86 -12 -19 -63 -11 -79 12 -20 29 -20 47 1 70 19 21 42 23 68 4z"/>
<path d="M6795 2198 c-2 -7 -6 -67 -8 -133 l-5 -120 77 4 c78 3 93 11 89 46
-2 16 -12 21 -45 23 l-43 3 0 89 c0 71 -3 89 -16 94 -25 10 -44 7 -49 -6z"/>
<path d="M7009 2179 c-51 -54 -31 -109 49 -133 12 -4 22 -14 22 -23 0 -11 -6
-14 -22 -8 -56 17 -78 17 -85 0 -9 -25 48 -75 86 -75 22 0 34 9 55 40 40 61
31 101 -30 126 -19 8 -34 18 -34 24 0 15 21 23 33 11 6 -6 19 -11 29 -11 26 0
23 45 -4 64 -35 24 -67 19 -99 -15z"/>
<path d="M3501 2085 c-30 -63 -52 -117 -50 -118 7 -5 60 -27 65 -27 2 0 9 11
14 25 8 22 16 25 54 25 36 0 46 -4 51 -20 5 -14 15 -20 37 -20 29 0 30 2 25
33 -3 17 -25 73 -49 122 -36 75 -47 90 -68 93 -23 2 -30 -7 -79 -113z m89 -17
c0 -10 -6 -18 -14 -18 -21 0 -25 11 -14 40 7 20 11 22 18 10 5 -8 10 -23 10
-32z"/>
<path d="M3890 2155 c0 -32 -4 -45 -14 -45 -7 0 -26 -3 -42 -6 -29 -6 -29 -6
-26 40 4 46 4 46 -27 46 -30 0 -31 -1 -31 -47 0 -27 -3 -78 -7 -115 l-6 -68
37 0 c35 0 36 1 36 39 0 41 11 51 56 51 22 0 24 -4 24 -50 0 -49 1 -50 30 -50
l30 0 0 125 0 125 -30 0 c-29 0 -30 -2 -30 -45z"/>
<path d="M5859 2193 c-1 -5 0 -46 0 -93 2 -83 3 -86 36 -117 46 -44 82 -44
129 1 l36 33 0 92 0 91 -33 0 -33 0 1 -82 0 -83 -31 -3 c-38 -4 -44 11 -44
106 l0 62 -30 0 c-16 0 -30 -3 -31 -7z"/>
<path d="M7200 2075 l0 -125 30 0 30 0 0 125 0 125 -30 0 -30 0 0 -125z"/>
<path d="M7340 2192 c-12 -6 -15 -30 -16 -124 l-1 -118 64 0 c65 0 69 2 75 45
3 17 -3 20 -39 23 l-42 3 -3 86 c-3 85 -9 98 -38 85z"/>
<path d="M7516 2184 c-3 -9 -6 -65 -6 -125 l0 -109 74 0 c77 0 86 5 86 51 0
16 -7 19 -56 19 l-56 0 7 65 c9 79 1 115 -24 115 -10 0 -22 -7 -25 -16z"/>
<path d="M7758 2171 c-59 -38 -83 -81 -69 -122 14 -42 61 -99 89 -110 61 -23
172 55 172 121 0 44 -24 96 -53 115 -47 30 -87 29 -139 -4z m102 -73 c24 -26
25 -45 3 -70 -23 -25 -68 -23 -87 4 -20 29 -20 47 1 70 22 24 58 23 83 -4z"/>
<path d="M2969 2180 c-31 -4 -61 -10 -67 -14 -17 -10 -23 -64 -14 -146 l7 -75
85 4 c47 1 86 4 88 6 2 1 0 14 -4 29 -5 23 -11 26 -50 26 -32 0 -44 4 -44 15
0 10 11 15 35 15 28 0 35 4 35 20 0 17 -7 20 -40 20 -33 0 -40 3 -40 20 0 16
7 20 34 20 52 0 66 9 66 41 0 32 3 31 -91 19z"/>
<path d="M3118 2070 l-3 -120 76 0 c61 0 78 3 83 16 15 38 7 44 -50 44 l-56 0
6 63 c9 84 1 117 -29 117 -23 0 -24 -2 -27 -120z"/>
<path d="M8353 2153 c-18 -4 -22 -13 -27 -71 -7 -82 4 -147 24 -147 10 0 17
14 20 40 l6 40 19 -32 c29 -48 31 -46 61 36 9 26 16 2 10 -33 -4 -20 -18 -49
-32 -66 -28 -33 -19 -38 26 -15 40 21 60 63 60 127 0 55 -16 90 -48 107 -22
11 -91 20 -119 14z m85 -71 c2 -25 -1 -42 -7 -42 -6 0 -11 13 -11 29 0 16 -3
37 -7 47 -4 12 -2 15 8 12 8 -3 15 -21 17 -46z m-71 16 c-3 -8 -6 -5 -6 6 -1
11 2 17 5 13 3 -3 4 -12 1 -19z"/>
<path d="M8268 2133 c-28 -33 -38 -61 -38 -114 0 -46 4 -55 39 -90 34 -34 44
-39 85 -39 29 0 45 4 41 10 -3 6 -19 10 -35 10 -43 0 -70 40 -70 104 0 28 7
64 15 80 8 15 15 35 15 42 0 20 -34 17 -52 -3z"/>
<path d="M4385 1678 c-3 -8 -4 -72 -3 -144 l3 -129 35 0 c34 0 35 1 38 43 2
23 7 42 13 42 5 0 24 -20 41 -45 25 -35 38 -45 60 -45 38 0 46 24 19 60 -26
36 -26 48 0 76 27 29 20 79 -16 118 -21 23 -32 26 -89 26 -35 0 -71 3 -80 6
-9 3 -18 0 -21 -8z m123 -74 c28 -8 29 -40 2 -49 -33 -10 -60 4 -60 31 0 25
14 29 58 18z"/>
<path d="M4748 1680 c-76 -23 -119 -73 -120 -139 -1 -74 54 -131 131 -139 54
-5 101 22 139 78 43 64 10 165 -64 196 -37 15 -47 16 -86 4z m74 -97 c24 -21
23 -44 -3 -77 -25 -32 -55 -33 -86 -4 -28 26 -29 52 -3 78 24 24 67 26 92 3z"/>
<path d="M5528 1674 c-33 -17 -48 -43 -48 -82 0 -31 26 -60 77 -86 38 -19 49
-34 34 -49 -7 -7 -15 -6 -28 5 -42 35 -83 31 -83 -8 0 -17 10 -29 40 -44 56
-29 93 -26 135 11 59 52 46 103 -34 138 -27 11 -52 25 -56 30 -10 17 14 22 49
12 28 -7 38 -6 50 8 23 26 20 37 -18 60 -39 24 -80 26 -118 5z"/>
<path d="M5886 1678 c-3 -7 -7 -47 -9 -88 -6 -89 -13 -110 -37 -110 -36 0 -50
32 -50 118 l0 82 -35 0 -35 0 0 -90 c0 -56 5 -104 14 -125 15 -36 67 -75 100
-75 29 0 85 39 101 70 16 32 32 205 19 212 -25 14 -65 18 -68 6z"/>
<path d="M6130 1544 l0 -144 91 0 c87 0 92 1 120 29 16 16 29 37 29 46 0 25
-19 55 -34 55 -12 0 -12 6 -3 30 10 25 8 36 -8 66 -24 45 -35 50 -122 56 l-73
5 0 -143z m137 60 c7 -19 -13 -34 -44 -34 -18 0 -23 6 -23 25 0 21 5 25 30 25
19 0 33 -6 37 -16z m1 -111 c-2 -12 -14 -19 -36 -21 -34 -3 -35 -2 -26 22 9
23 67 22 62 -1z"/>
<path d="M6453 1671 c-68 -31 -94 -91 -73 -166 29 -105 143 -142 218 -72 62
57 70 136 21 192 -35 39 -77 65 -106 65 -10 0 -37 -9 -60 -19z m105 -83 c17
-17 15 -68 -5 -90 -20 -22 -61 -23 -85 -1 -22 20 -24 66 -2 87 18 19 75 21 92
4z"/>
<path d="M6693 1551 c-5 -75 -8 -139 -6 -143 2 -5 42 -8 89 -8 l85 0 -3 38
c-3 37 -3 37 -51 40 l-48 3 3 96 3 97 -31 6 -32 7 -9 -136z"/>
<path d="M2642 1539 l3 -144 93 -3 93 -3 -3 38 -3 38 -52 3 c-29 2 -53 7 -53
13 0 11 10 15 63 24 31 5 37 10 37 30 0 24 -3 25 -55 25 -48 0 -55 3 -55 20 0
16 8 19 63 22 62 3 62 3 65 36 l3 32 -78 0 c-43 0 -88 3 -101 6 l-23 6 3 -143z"/>
<path d="M2881 1550 c1 -69 6 -133 11 -142 7 -15 23 -18 87 -18 85 0 90 4 91
68 0 20 -5 22 -55 22 l-55 0 0 94 0 94 -40 4 -41 4 2 -126z"/>
<path d="M3248 1557 c-32 -68 -58 -133 -58 -145 0 -19 5 -22 44 -22 38 0 45 3
48 21 4 31 29 43 70 35 28 -5 37 -13 42 -32 6 -24 10 -26 43 -21 19 4 38 9 41
12 8 7 -22 90 -70 193 -36 78 -39 82 -70 82 -32 0 -34 -3 -90 -123z m106 -13
c10 -26 7 -34 -14 -34 -11 0 -20 4 -20 9 0 17 12 41 20 41 4 0 11 -7 14 -16z"/>
<path d="M3527 1673 c-4 -3 -7 -66 -7 -140 l0 -133 35 0 c36 0 37 2 48 90 2
10 14 15 37 15 35 0 35 -1 40 -50 5 -49 6 -50 40 -53 l35 -3 0 138 0 138 -37
3 -37 3 -3 -58 -3 -58 -42 -3 -43 -3 0 60 c0 60 0 61 -28 61 -16 0 -32 -3 -35
-7z"/>
<path d="M3874 1666 c-66 -29 -101 -122 -70 -187 31 -66 117 -100 176 -69 41
21 79 61 90 95 23 70 -54 175 -128 175 -20 -1 -51 -7 -68 -14z m104 -94 c29
-37 0 -92 -49 -92 -31 0 -59 31 -59 66 0 48 75 66 108 26z"/>
<path d="M4117 1673 c-4 -3 -7 -66 -7 -140 l0 -133 40 0 40 0 0 45 c0 25 4 45
9 45 5 0 23 -22 40 -50 31 -51 38 -55 79 -44 27 8 28 31 2 64 -25 31 -25 36 0
67 11 14 20 37 20 50 0 32 -26 80 -49 93 -22 11 -164 14 -174 3z m140 -79 c7
-19 -21 -44 -49 -44 -21 0 -33 22 -24 45 8 21 65 20 73 -1z"/>
<path d="M5098 1557 c-32 -68 -58 -131 -58 -140 0 -13 9 -17 45 -17 44 0 50 5
46 38 -2 10 13 12 56 10 55 -3 58 -4 61 -31 3 -28 5 -28 45 -22 23 4 44 9 46
11 5 5 -59 149 -97 219 -22 41 -32 50 -57 53 -29 2 -32 -1 -87 -121z m112 -23
c0 -23 -28 -41 -41 -27 -4 4 -1 24 7 43 12 27 17 32 24 20 5 -8 10 -25 10 -36z"/>
<path d="M6919 1651 c-21 -21 -29 -39 -29 -64 0 -32 5 -37 60 -66 57 -30 73
-52 50 -66 -6 -3 -22 3 -36 14 -49 38 -99 18 -74 -30 15 -27 85 -61 114 -53
13 3 40 23 61 44 30 30 36 43 30 61 -10 35 -40 64 -86 84 -58 26 -49 39 21 32
59 -7 60 -6 60 18 0 34 -35 55 -93 55 -40 0 -53 -5 -78 -29z"/>
<path d="M7136 1664 c-3 -9 -6 -74 -6 -145 l0 -129 34 0 c43 0 46 10 46 168
l0 122 -34 0 c-22 0 -36 -6 -40 -16z"/>
<path d="M7266 1672 c-3 -5 -6 -69 -7 -143 l-1 -134 80 -3 80 -3 7 32 c9 40
-15 63 -57 53 l-28 -6 0 106 0 106 -34 0 c-19 0 -37 -4 -40 -8z"/>
<path d="M7463 1673 c-10 -3 -13 -41 -13 -138 l0 -132 31 -7 c17 -3 58 -6 90
-6 58 0 59 0 59 29 0 55 -8 63 -56 55 l-44 -6 0 106 0 106 -27 -1 c-16 0 -34
-3 -40 -6z"/>
<path d="M7709 1657 c-55 -37 -82 -85 -74 -132 13 -85 71 -135 157 -135 108 0
171 110 120 210 -38 76 -134 103 -203 57z m115 -83 c9 -8 16 -26 16 -40 0 -26
-32 -64 -53 -64 -46 0 -86 82 -51 107 24 18 69 16 88 -3z"/>
<path d="M2426 1549 c-34 -27 -33 -45 6 -69 53 -32 128 1 113 49 -13 42 -77
53 -119 20z"/>
<path d="M8033 1560 c-26 -10 -32 -57 -11 -78 15 -15 69 -15 103 0 32 15 32
41 -1 67 -28 22 -55 25 -91 11z"/>
</g>
</svg>
